<?xml version="1.0" encoding="UTF-8" standalone="no"?>
<svg
   version="1.1"
   width="32"
   height="16"
   viewBox="0 0 32 16"
   xml:space="preserve"
   id="svg9"
   sodipodi:docname="Game Icon - test.svg"
   inkscape:version="1.3.2 (091e20ef0f, 2023-11-25)"
   xmlns:inkscape="http://www.inkscape.org/namespaces/inkscape"
   xmlns:sodipodi="http://sodipodi.sourceforge.net/DTD/sodipodi-0.dtd"
   xmlns="http://www.w3.org/2000/svg"
   xmlns:svg="http://www.w3.org/2000/svg"><sodipodi:namedview
   id="namedview9"
   pagecolor="#ffffff"
   bordercolor="#000000"
   borderopacity="0.25"
   inkscape:showpageshadow="2"
   inkscape:pageopacity="0.0"
   inkscape:pagecheckerboard="true"
   inkscape:deskcolor="#d1d1d1"
   inkscape:zoom="42.90625"
   inkscape:cx="16.011653"
   inkscape:cy="7.6212673"
   inkscape:window-width="1920"
   inkscape:window-height="1020"
   inkscape:window-x="0"
   inkscape:window-y="0"
   inkscape:window-maximized="1"
   inkscape:current-layer="svg9" />
<desc
   id="desc1">Created with Fabric.js 5.3.0</desc>
<defs
   id="defs1">
</defs>
<path
   id="path1"
   style="stroke:rgb(71, 194, 187);stroke-width:0;stroke-dasharray:none;stroke-linecap:butt;stroke-dashoffset:0;stroke-linejoin:miter;stroke-miterlimit:4;fill:rgb(0, 0, 0);fill-rule:nonzero;opacity:1"
   inkscape:label="Controller Body"
   d="M -1.7416139 -1.7419103 C -2.3825695 -1.7419103 -2.9027694 -0.96161059 -2.9027694 -0.00017722134 C -2.9027694 0.96125615 -2.3825695 1.7415558 -1.7416139 1.7415558 L 1.7418524 1.7415558 C 2.3828081 1.7415558 2.9030079 0.96125615 2.9030079 -0.00017722134 C 2.9030079 -0.96161059 2.3828081 -1.7419103 1.7418524 -1.7419103 L -1.7416139 -1.7419103 z M -1.5545137 -1.306477 L -1.0597375 -1.306477 C -1.0359914 -1.306477 -1.0166477 -1.2774639 -1.0166477 -1.2418424 L -1.0166477 -0.43561048 L -0.47915977 -0.43561048 C -0.45541202 -0.43561048 -0.43607002 -0.4065949 -0.43607002 -0.37097586 L -0.43607002 0.37118838 C -0.43607002 0.40680746 -0.45541202 0.43525604 -0.47915977 0.43525604 L -1.0166477 0.43525604 L -1.0166477 1.2420549 C -1.0166477 1.2776765 -1.0359914 1.3061226 -1.0597375 1.3061226 L -1.5545137 1.3061226 C -1.5782598 1.3061226 -1.5972255 1.2776765 -1.5972255 1.2420549 L -1.5972255 0.43525604 L -2.1350914 0.43525604 C -2.1588391 0.43525604 -2.1778032 0.40680746 -2.1778032 0.37118838 L -2.1778032 -0.37097586 C -2.1778032 -0.4065949 -2.1588391 -0.43561048 -2.1350914 -0.43561048 L -1.5972255 -0.43561048 L -1.5972255 -1.2418424 C -1.5972255 -1.2774639 -1.5782598 -1.306477 -1.5545137 -1.306477 z M 1.4515635 -1.306477 C 1.611802 -1.306477 1.7418524 -1.1114013 1.7418524 -0.87104374 C 1.7418524 -0.63068614 1.611802 -0.43561048 1.4515635 -0.43561048 C 1.2913251 -0.43561048 1.1612747 -0.63068614 1.1612747 -0.87104374 C 1.1612747 -1.1114013 1.2913251 -1.306477 1.4515635 -1.306477 z M 0.87098582 -0.43561048 C 1.0312242 -0.43561048 1.1612747 -0.24053483 1.1612747 -0.00017722134 C 1.1612747 0.24018039 1.0312242 0.43525604 0.87098582 0.43525604 C 0.71074741 0.43525604 0.58069696 0.24018039 0.58069696 -0.00017722134 C 0.58069696 -0.24053483 0.71074741 -0.43561048 0.87098582 -0.43561048 z M 2.0321413 -0.43561048 C 2.1923797 -0.43561048 2.3224301 -0.24053483 2.3224301 -0.00017722134 C 2.3224301 0.24018039 2.1923797 0.43525604 2.0321413 0.43525604 C 1.8719029 0.43525604 1.7418524 0.24018039 1.7418524 -0.00017722134 C 1.7418524 -0.24053483 1.8719029 -0.43561048 2.0321413 -0.43561048 z M 1.4515635 0.43525604 C 1.611802 0.43525604 1.7418524 0.63033172 1.7418524 0.8706893 C 1.7418524 1.1110469 1.611802 1.3061226 1.4515635 1.3061226 C 1.2913251 1.3061226 1.1612747 1.1110469 1.1612747 0.8706893 C 1.1612747 0.63033172 1.2913251 0.43525604 1.4515635 0.43525604 z "
   transform="matrix(5.1672668,0,0,3.4448448,15.751337,7.742798)" />








</svg>
